<svg width="28" height="28" viewBox="0 0 28 28" fill="none" xmlns="http://www.w3.org/2000/svg">
    <path d="M1.39973 15.4001H2.79976V25.2C2.79976 26.7442 4.05559 28 5.59982 28H22.4002C23.9444 28 25.2002 26.7442 25.2002 25.2V15.4001H26.6003C26.8771 15.4001 27.1477 15.3179 27.3779 15.1641C27.6081 15.0103 27.7875 14.7916 27.8934 14.5359C27.9994 14.2801 28.0271 13.9986 27.9731 13.7271C27.9191 13.4556 27.7858 13.2061 27.5901 13.0104L14.9898 0.410477C14.8599 0.280355 14.7056 0.177123 14.5358 0.106688C14.3659 0.0362542 14.1839 0 14 0C13.8161 0 13.6341 0.0362542 13.4642 0.106688C13.2944 0.177123 13.1401 0.280355 13.0102 0.410477L0.40991 13.0104C0.214173 13.2061 0.0808812 13.4556 0.0268854 13.7271C-0.0271103 13.9986 0.000614546 14.2801 0.106555 14.5359C0.212495 14.7916 0.391894 15.0103 0.622073 15.1641C0.852252 15.3179 1.12288 15.4001 1.39973 15.4001ZM11.1999 25.2V18.2001H16.8001V25.2H11.1999ZM14 3.37985L22.4002 11.7798V18.2001L22.4016 25.2H19.6001V18.2001C19.6001 16.6559 18.3443 15.4001 16.8001 15.4001H11.1999C9.65571 15.4001 8.39988 16.6559 8.39988 18.2001V25.2H5.59982V11.7798L14 3.37985Z" fill="currentColor"/>
</svg>